# MagicaVoxel @ Ephtracy

# group
o 

# material
mtllib Enemy2-2.mtl
usemtl palette

# normals
vn -1 0 0
vn 1 0 0
vn 0 0 1
vn 0 0 -1
vn 0 -1 0
vn 0 1 0

# texcoords
vt 0.544922 0.5
vt 0.583984 0.5

# verts
v -0.8 0 0.8
v -0.8 0 0.6
v -0.8 0.1 0.8
v -0.8 0.1 0.6
v -0.7 0 1
v -0.7 0 0.8
v -0.7 0 0.6
v -0.7 0 0.4
v -0.7 0.1 1
v -0.7 0.1 0.8
v -0.7 0.1 0.6
v -0.7 0.1 0.4
v -0.6 0 1.2
v -0.6 0 1
v -0.6 0.1 1.2
v -0.6 0.1 1
v -0.3 0 1.1
v -0.3 0 1
v -0.3 0.1 1.1
v -0.3 0.1 1
v -0.2 0 1.2
v -0.2 0 1.1
v -0.2 0.1 1.2
v -0.2 0.1 1.1
v -0.7 0 0.8
v -0.7 0 0.7
v -0.7 0.1 0.8
v -0.7 0.1 0.7
v -0.6 0 0.7
v -0.6 0 0.4
v -0.6 0.1 0.7
v -0.6 0.1 0.4
v -0.5 0 1.2
v -0.5 0 1.1
v -0.5 0.1 1.2
v -0.5 0.1 1.1
v -0.4 0 1.1
v -0.4 0 1
v -0.4 0 0.9
v -0.4 0 0.8
v -0.4 0.1 1.1
v -0.4 0.1 1
v -0.4 0.1 0.9
v -0.4 0.1 0.8
v -0.1 0 1
v -0.1 0 0.9
v -0.1 0.1 1
v -0.1 0.1 0.9
v 0 0 1.2
v 0 0 1
v 0 0.1 1.2
v 0 0.1 1
v -0.6 0 1.2
v -0.6 0.1 1.2
v -0.5 0 1.2
v -0.5 0.1 1.2
v -0.2 0 1.2
v -0.2 0.1 1.2
v 0 0 1.2
v 0 0.1 1.2
v -0.5 0 1.1
v -0.5 0.1 1.1
v -0.4 0 1.1
v -0.4 0.1 1.1
v -0.3 0 1.1
v -0.3 0.1 1.1
v -0.2 0 1.1
v -0.2 0.1 1.1
v -0.7 0 1
v -0.7 0.1 1
v -0.6 0 1
v -0.6 0.1 1
v -0.4 0 1
v -0.4 0.1 1
v -0.3 0 1
v -0.3 0.1 1
v -0.8 0 0.8
v -0.8 0.1 0.8
v -0.7 0 0.8
v -0.7 0.1 0.8
v -0.7 0 0.7
v -0.7 0.1 0.7
v -0.6 0 0.7
v -0.6 0.1 0.7
v -0.1 0 1
v -0.1 0.1 1
v 0 0 1
v 0 0.1 1
v -0.4 0 0.9
v -0.4 0.1 0.9
v -0.1 0 0.9
v -0.1 0.1 0.9
v -0.7 0 0.8
v -0.7 0.1 0.8
v -0.4 0 0.8
v -0.4 0.1 0.8
v -0.8 0 0.6
v -0.8 0.1 0.6
v -0.7 0 0.6
v -0.7 0.1 0.6
v -0.7 0 0.4
v -0.7 0.1 0.4
v -0.6 0 0.4
v -0.6 0.1 0.4
v -0.6 0 1.2
v -0.5 0 1.2
v -0.2 0 1.2
v 0 0 1.2
v -0.5 0 1.1
v -0.4 0 1.1
v -0.3 0 1.1
v -0.2 0 1.1
v -0.7 0 1
v -0.6 0 1
v -0.4 0 1
v -0.3 0 1
v -0.1 0 1
v 0 0 1
v -0.4 0 0.9
v -0.1 0 0.9
v -0.8 0 0.8
v -0.7 0 0.8
v -0.4 0 0.8
v -0.7 0 0.7
v -0.6 0 0.7
v -0.8 0 0.6
v -0.7 0 0.6
v -0.7 0 0.4
v -0.6 0 0.4
v -0.6 0.1 1.2
v -0.5 0.1 1.2
v -0.2 0.1 1.2
v 0 0.1 1.2
v -0.5 0.1 1.1
v -0.4 0.1 1.1
v -0.3 0.1 1.1
v -0.2 0.1 1.1
v -0.7 0.1 1
v -0.6 0.1 1
v -0.4 0.1 1
v -0.3 0.1 1
v -0.1 0.1 1
v 0 0.1 1
v -0.4 0.1 0.9
v -0.1 0.1 0.9
v -0.8 0.1 0.8
v -0.7 0.1 0.8
v -0.4 0.1 0.8
v -0.7 0.1 0.7
v -0.6 0.1 0.7
v -0.8 0.1 0.6
v -0.7 0.1 0.6
v -0.7 0.1 0.4
v -0.6 0.1 0.4

# faces
f 3/2/1 2/2/1 1/2/1
f 4/2/1 2/2/1 3/2/1
f 9/2/1 6/2/1 5/2/1
f 10/2/1 6/2/1 9/2/1
f 11/2/1 8/2/1 7/2/1
f 12/2/1 8/2/1 11/2/1
f 15/2/1 14/2/1 13/2/1
f 16/2/1 14/2/1 15/2/1
f 19/1/1 18/1/1 17/1/1
f 20/1/1 18/1/1 19/1/1
f 23/1/1 22/1/1 21/1/1
f 24/1/1 22/1/1 23/1/1
f 25/2/2 26/2/2 27/2/2
f 27/2/2 26/2/2 28/2/2
f 29/2/2 30/2/2 31/2/2
f 31/2/2 30/2/2 32/2/2
f 33/2/2 34/2/2 35/2/2
f 35/2/2 34/2/2 36/2/2
f 37/2/2 38/2/2 41/2/2
f 41/2/2 38/2/2 42/2/2
f 39/2/2 40/2/2 43/2/2
f 43/2/2 40/2/2 44/2/2
f 45/1/2 46/1/2 47/1/2
f 47/1/2 46/1/2 48/1/2
f 49/1/2 50/1/2 51/1/2
f 51/1/2 50/1/2 52/1/2
f 55/2/3 54/2/3 53/2/3
f 56/2/3 54/2/3 55/2/3
f 59/1/3 58/1/3 57/1/3
f 60/1/3 58/1/3 59/1/3
f 63/2/3 62/2/3 61/2/3
f 64/2/3 62/2/3 63/2/3
f 67/1/3 66/1/3 65/1/3
f 68/1/3 66/1/3 67/1/3
f 71/2/3 70/2/3 69/2/3
f 72/2/3 70/2/3 71/2/3
f 75/1/3 74/1/3 73/1/3
f 76/1/3 74/1/3 75/1/3
f 79/2/3 78/2/3 77/2/3
f 80/2/3 78/2/3 79/2/3
f 83/2/3 82/2/3 81/2/3
f 84/2/3 82/2/3 83/2/3
f 85/1/4 86/1/4 87/1/4
f 87/1/4 86/1/4 88/1/4
f 89/1/4 90/1/4 91/1/4
f 91/1/4 90/1/4 92/1/4
f 93/2/4 94/2/4 95/2/4
f 95/2/4 94/2/4 96/2/4
f 97/2/4 98/2/4 99/2/4
f 99/2/4 98/2/4 100/2/4
f 101/2/4 102/2/4 103/2/4
f 103/2/4 102/2/4 104/2/4
f 109/2/5 106/2/5 105/2/5
f 112/1/5 108/1/5 107/1/5
f 114/2/5 110/2/5 109/2/5
f 114/2/5 109/2/5 105/2/5
f 115/2/5 110/2/5 114/2/5
f 116/1/5 112/1/5 111/1/5
f 117/1/5 108/1/5 112/1/5
f 117/1/5 112/1/5 116/1/5
f 118/1/5 108/1/5 117/1/5
f 119/2/5 115/2/5 114/2/5
f 119/1/5 116/1/5 115/1/5
f 119/1/5 117/1/5 116/1/5
f 119/2/5 114/2/5 113/2/5
f 120/1/5 117/1/5 119/1/5
f 122/2/5 119/2/5 113/2/5
f 123/2/5 119/2/5 122/2/5
f 124/2/5 122/2/5 121/2/5
f 126/2/5 124/2/5 121/2/5
f 126/2/5 125/2/5 124/2/5
f 127/2/5 125/2/5 126/2/5
f 128/2/5 125/2/5 127/2/5
f 129/2/5 125/2/5 128/2/5
f 130/2/6 131/2/6 134/2/6
f 132/1/6 133/1/6 137/1/6
f 134/2/6 135/2/6 139/2/6
f 130/2/6 134/2/6 139/2/6
f 139/2/6 135/2/6 140/2/6
f 136/1/6 137/1/6 141/1/6
f 137/1/6 133/1/6 142/1/6
f 141/1/6 137/1/6 142/1/6
f 142/1/6 133/1/6 143/1/6
f 139/2/6 140/2/6 144/2/6
f 140/1/6 141/1/6 144/1/6
f 141/1/6 142/1/6 144/1/6
f 138/2/6 139/2/6 144/2/6
f 144/1/6 142/1/6 145/1/6
f 138/2/6 144/2/6 147/2/6
f 147/2/6 144/2/6 148/2/6
f 146/2/6 147/2/6 149/2/6
f 146/2/6 149/2/6 151/2/6
f 149/2/6 150/2/6 151/2/6
f 151/2/6 150/2/6 152/2/6
f 152/2/6 150/2/6 153/2/6
f 153/2/6 150/2/6 154/2/6
