# MagicaVoxel @ Ephtracy

# group
o 

# material
mtllib Enemy2-1.mtl
usemtl palette

# normals
vn -1 0 0
vn 1 0 0
vn 0 0 1
vn 0 0 -1
vn 0 -1 0
vn 0 1 0

# texcoords
vt 0.544922 0.5
vt 0.583984 0.5

# verts
v -1.1 0 1.2
v -1.1 0 1
v -1.1 0 0.8
v -1.1 0 0.6
v -1.1 0.1 1.2
v -1.1 0.1 1
v -1.1 0.1 0.8
v -1.1 0.1 0.6
v -1 0 1
v -1 0 0.9
v -1 0.1 1
v -1 0.1 0.9
v -0.8 0 0.9
v -0.8 0 0.8
v -0.8 0.1 0.9
v -0.8 0.1 0.8
v -0.7 0 1.1
v -0.7 0 1
v -0.7 0.1 1.1
v -0.7 0.1 1
v -1 0 0.7
v -1 0 0.6
v -1 0.1 0.7
v -1 0.1 0.6
v -0.9 0 1.2
v -0.9 0 1.1
v -0.9 0.1 1.2
v -0.9 0.1 1.1
v -0.8 0 1.1
v -0.8 0 1
v -0.8 0 0.8
v -0.8 0 0.7
v -0.8 0.1 1.1
v -0.8 0.1 1
v -0.8 0.1 0.8
v -0.8 0.1 0.7
v -0.7 0 1
v -0.7 0 0.9
v -0.7 0 0.8
v -0.7 0.1 1
v -0.7 0.1 0.9
v -0.7 0.1 0.8
v -0.6 0 1.1
v -0.6 0 1
v -0.6 0.1 1.1
v -0.6 0.1 1
v -1.1 0 1.2
v -1.1 0.1 1.2
v -0.9 0 1.2
v -0.9 0.1 1.2
v -0.9 0 1.1
v -0.9 0.1 1.1
v -0.8 0 1.1
v -0.8 0.1 1.1
v -0.7 0 1.1
v -0.7 0.1 1.1
v -0.6 0 1.1
v -0.6 0.1 1.1
v -0.8 0 1
v -0.8 0.1 1
v -0.7 0 1
v -0.7 0.1 1
v -1.1 0 0.8
v -1.1 0.1 0.8
v -0.8 0 0.8
v -0.8 0.1 0.8
v -1.1 0 1
v -1.1 0.1 1
v -1 0 1
v -1 0.1 1
v -0.7 0 1
v -0.7 0.1 1
v -0.6 0 1
v -0.6 0.1 1
v -1 0 0.9
v -1 0.1 0.9
v -0.8 0 0.9
v -0.8 0.1 0.9
v -0.8 0 0.8
v -0.8 0.1 0.8
v -0.7 0 0.8
v -0.7 0.1 0.8
v -1 0 0.7
v -1 0.1 0.7
v -0.8 0 0.7
v -0.8 0.1 0.7
v -1.1 0 0.6
v -1.1 0.1 0.6
v -1 0 0.6
v -1 0.1 0.6
v -1.1 0 1.2
v -0.9 0 1.2
v -0.9 0 1.1
v -0.8 0 1.1
v -0.7 0 1.1
v -0.6 0 1.1
v -1.1 0 1
v -1 0 1
v -0.8 0 1
v -0.7 0 1
v -0.6 0 1
v -1 0 0.9
v -0.8 0 0.9
v -0.7 0 0.9
v -1.1 0 0.8
v -0.8 0 0.8
v -0.7 0 0.8
v -1 0 0.7
v -0.8 0 0.7
v -1.1 0 0.6
v -1 0 0.6
v -1.1 0.1 1.2
v -0.9 0.1 1.2
v -0.9 0.1 1.1
v -0.8 0.1 1.1
v -0.7 0.1 1.1
v -0.6 0.1 1.1
v -1.1 0.1 1
v -1 0.1 1
v -0.8 0.1 1
v -0.7 0.1 1
v -0.6 0.1 1
v -1 0.1 0.9
v -0.8 0.1 0.9
v -0.7 0.1 0.9
v -1.1 0.1 0.8
v -0.8 0.1 0.8
v -0.7 0.1 0.8
v -1 0.1 0.7
v -0.8 0.1 0.7
v -1.1 0.1 0.6
v -1 0.1 0.6

# faces
f 5/1/1 2/1/1 1/1/1
f 6/1/1 2/1/1 5/1/1
f 7/2/1 4/2/1 3/2/1
f 8/2/1 4/2/1 7/2/1
f 11/1/1 10/1/1 9/1/1
f 12/1/1 10/1/1 11/1/1
f 15/2/1 14/2/1 13/2/1
f 16/2/1 14/2/1 15/2/1
f 19/2/1 18/2/1 17/2/1
f 20/2/1 18/2/1 19/2/1
f 21/2/2 22/2/2 23/2/2
f 23/2/2 22/2/2 24/2/2
f 25/1/2 26/1/2 27/1/2
f 27/1/2 26/1/2 28/1/2
f 29/1/2 30/1/2 33/1/2
f 33/1/2 30/1/2 34/1/2
f 31/2/2 32/2/2 35/2/2
f 35/2/2 32/2/2 36/2/2
f 37/1/2 38/1/2 40/1/2
f 38/2/2 39/2/2 41/2/2
f 40/1/2 38/1/2 41/1/2
f 41/2/2 39/2/2 42/2/2
f 43/2/2 44/2/2 45/2/2
f 45/2/2 44/2/2 46/2/2
f 49/1/3 48/1/3 47/1/3
f 50/1/3 48/1/3 49/1/3
f 53/1/3 52/1/3 51/1/3
f 54/1/3 52/1/3 53/1/3
f 57/2/3 56/2/3 55/2/3
f 58/2/3 56/2/3 57/2/3
f 61/1/3 60/1/3 59/1/3
f 62/1/3 60/1/3 61/1/3
f 65/2/3 64/2/3 63/2/3
f 66/2/3 64/2/3 65/2/3
f 67/1/4 68/1/4 69/1/4
f 69/1/4 68/1/4 70/1/4
f 71/2/4 72/2/4 73/2/4
f 73/2/4 72/2/4 74/2/4
f 75/1/4 76/1/4 77/1/4
f 77/1/4 76/1/4 78/1/4
f 79/2/4 80/2/4 81/2/4
f 81/2/4 80/2/4 82/2/4
f 83/2/4 84/2/4 85/2/4
f 85/2/4 84/2/4 86/2/4
f 87/2/4 88/2/4 89/2/4
f 89/2/4 88/2/4 90/2/4
f 93/1/5 92/1/5 91/1/5
f 97/1/5 93/1/5 91/1/5
f 97/1/5 94/1/5 93/1/5
f 98/1/5 94/1/5 97/1/5
f 99/1/5 94/1/5 98/1/5
f 100/2/5 96/2/5 95/2/5
f 101/2/5 96/2/5 100/2/5
f 102/1/5 99/1/5 98/1/5
f 102/1/5 100/1/5 99/1/5
f 103/1/5 100/1/5 102/1/5
f 104/1/5 100/1/5 103/1/5
f 106/2/5 104/2/5 103/2/5
f 107/2/5 104/2/5 106/2/5
f 108/2/5 106/2/5 105/2/5
f 109/2/5 106/2/5 108/2/5
f 110/2/5 108/2/5 105/2/5
f 111/2/5 108/2/5 110/2/5
f 112/1/6 113/1/6 114/1/6
f 112/1/6 114/1/6 118/1/6
f 114/1/6 115/1/6 118/1/6
f 118/1/6 115/1/6 119/1/6
f 119/1/6 115/1/6 120/1/6
f 116/2/6 117/2/6 121/2/6
f 121/2/6 117/2/6 122/2/6
f 119/1/6 120/1/6 123/1/6
f 120/1/6 121/1/6 123/1/6
f 123/1/6 121/1/6 124/1/6
f 124/1/6 121/1/6 125/1/6
f 124/2/6 125/2/6 127/2/6
f 127/2/6 125/2/6 128/2/6
f 126/2/6 127/2/6 129/2/6
f 129/2/6 127/2/6 130/2/6
f 126/2/6 129/2/6 131/2/6
f 131/2/6 129/2/6 132/2/6
