# MagicaVoxel @ Ephtracy

# group
o 

# material
mtllib Enemy1-0.mtl
usemtl palette

# normals
vn -1 0 0
vn 1 0 0
vn 0 0 1
vn 0 0 -1
vn 0 -1 0
vn 0 1 0

# texcoords
vt 0.162109 0.5
vt 0.841797 0.5

# verts
v -0.7 0 0.8
v -0.7 0 0.7
v -0.7 0.1 0.8
v -0.7 0.1 0.7
v -0.6 0 0.7
v -0.6 0 0.6
v -0.6 0.1 0.7
v -0.6 0.1 0.6
v -0.5 0 0.6
v -0.5 0 0.4
v -0.5 0.1 0.6
v -0.5 0.1 0.4
v -0.4 0 0.9
v -0.4 0 0.8
v -0.4 0.1 0.9
v -0.4 0.1 0.8
v -0.1 0 0.7
v -0.1 0 0.6
v -0.1 0.1 0.7
v -0.1 0.1 0.6
v -0.4 0 0.6
v -0.4 0 0.4
v -0.4 0.1 0.6
v -0.4 0.1 0.4
v -0.3 0 0.9
v -0.3 0 0.8
v -0.3 0 0.7
v -0.3 0 0.6
v -0.3 0.1 0.9
v -0.3 0.1 0.8
v -0.3 0.1 0.7
v -0.3 0.1 0.6
v 0 0 0.8
v 0 0 0.6
v 0 0.1 0.8
v 0 0.1 0.6
v -0.4 0 0.9
v -0.4 0.1 0.9
v -0.3 0 0.9
v -0.3 0.1 0.9
v -0.7 0 0.8
v -0.7 0.1 0.8
v -0.6 0 0.8
v -0.6 0.1 0.8
v -0.5 0 0.8
v -0.5 0.1 0.8
v -0.4 0 0.8
v -0.4 0.1 0.8
v -0.3 0 0.8
v -0.3 0.1 0.8
v 0 0 0.8
v 0 0.1 0.8
v -0.7 0 0.7
v -0.7 0.1 0.7
v -0.6 0 0.7
v -0.6 0.1 0.7
v -0.3 0 0.7
v -0.3 0.1 0.7
v -0.1 0 0.7
v -0.1 0.1 0.7
v -0.6 0 0.6
v -0.6 0.1 0.6
v -0.5 0 0.6
v -0.5 0.1 0.6
v -0.4 0 0.6
v -0.4 0.1 0.6
v -0.3 0 0.6
v -0.3 0.1 0.6
v -0.1 0 0.6
v -0.1 0.1 0.6
v 0 0 0.6
v 0 0.1 0.6
v -0.5 0 0.4
v -0.5 0.1 0.4
v -0.4 0 0.4
v -0.4 0.1 0.4
v -0.4 0 0.9
v -0.3 0 0.9
v -0.7 0 0.8
v -0.6 0 0.8
v -0.5 0 0.8
v -0.4 0 0.8
v -0.3 0 0.8
v 0 0 0.8
v -0.7 0 0.7
v -0.6 0 0.7
v -0.5 0 0.7
v -0.4 0 0.7
v -0.3 0 0.7
v -0.1 0 0.7
v -0.6 0 0.6
v -0.5 0 0.6
v -0.4 0 0.6
v -0.3 0 0.6
v -0.1 0 0.6
v 0 0 0.6
v -0.5 0 0.4
v -0.4 0 0.4
v -0.4 0.1 0.9
v -0.3 0.1 0.9
v -0.7 0.1 0.8
v -0.6 0.1 0.8
v -0.5 0.1 0.8
v -0.4 0.1 0.8
v -0.3 0.1 0.8
v 0 0.1 0.8
v -0.7 0.1 0.7
v -0.6 0.1 0.7
v -0.5 0.1 0.7
v -0.4 0.1 0.7
v -0.3 0.1 0.7
v -0.1 0.1 0.7
v -0.6 0.1 0.6
v -0.5 0.1 0.6
v -0.4 0.1 0.6
v -0.3 0.1 0.6
v -0.1 0.1 0.6
v 0 0.1 0.6
v -0.5 0.1 0.4
v -0.4 0.1 0.4

# faces
f 3/1/1 2/1/1 1/1/1
f 4/1/1 2/1/1 3/1/1
f 7/2/1 6/2/1 5/2/1
f 8/2/1 6/2/1 7/2/1
f 11/2/1 10/2/1 9/2/1
f 12/2/1 10/2/1 11/2/1
f 15/2/1 14/2/1 13/2/1
f 16/2/1 14/2/1 15/2/1
f 19/2/1 18/2/1 17/2/1
f 20/2/1 18/2/1 19/2/1
f 21/2/2 22/2/2 23/2/2
f 23/2/2 22/2/2 24/2/2
f 25/2/2 26/2/2 29/2/2
f 29/2/2 26/2/2 30/2/2
f 27/2/2 28/2/2 31/2/2
f 31/2/2 28/2/2 32/2/2
f 33/2/2 34/2/2 35/2/2
f 35/2/2 34/2/2 36/2/2
f 39/2/3 38/2/3 37/2/3
f 40/2/3 38/2/3 39/2/3
f 43/1/3 42/1/3 41/1/3
f 44/1/3 42/1/3 43/1/3
f 45/2/3 44/2/3 43/2/3
f 46/2/3 44/2/3 45/2/3
f 47/1/3 46/1/3 45/1/3
f 48/1/3 46/1/3 47/1/3
f 51/2/3 50/2/3 49/2/3
f 52/2/3 50/2/3 51/2/3
f 53/1/4 54/1/4 55/1/4
f 55/1/4 54/1/4 56/1/4
f 57/2/4 58/2/4 59/2/4
f 59/2/4 58/2/4 60/2/4
f 61/2/4 62/2/4 63/2/4
f 63/2/4 62/2/4 64/2/4
f 65/2/4 66/2/4 67/2/4
f 67/2/4 66/2/4 68/2/4
f 69/2/4 70/2/4 71/2/4
f 71/2/4 70/2/4 72/2/4
f 73/2/4 74/2/4 75/2/4
f 75/2/4 74/2/4 76/2/4
f 82/2/5 78/2/5 77/2/5
f 83/2/5 78/2/5 82/2/5
f 85/1/5 80/1/5 79/1/5
f 86/2/5 81/2/5 80/2/5
f 86/1/5 80/1/5 85/1/5
f 87/1/5 82/1/5 81/1/5
f 87/2/5 81/2/5 86/2/5
f 88/2/5 84/2/5 83/2/5
f 88/1/5 82/1/5 87/1/5
f 88/2/5 83/2/5 82/2/5
f 89/2/5 84/2/5 88/2/5
f 90/2/5 84/2/5 89/2/5
f 91/2/5 87/2/5 86/2/5
f 91/2/5 89/2/5 88/2/5
f 91/2/5 88/2/5 87/2/5
f 92/2/5 89/2/5 91/2/5
f 93/2/5 89/2/5 92/2/5
f 94/2/5 89/2/5 93/2/5
f 95/2/5 84/2/5 90/2/5
f 96/2/5 84/2/5 95/2/5
f 97/2/5 93/2/5 92/2/5
f 98/2/5 93/2/5 97/2/5
f 99/2/6 100/2/6 104/2/6
f 104/2/6 100/2/6 105/2/6
f 101/1/6 102/1/6 107/1/6
f 102/2/6 103/2/6 108/2/6
f 107/1/6 102/1/6 108/1/6
f 103/1/6 104/1/6 109/1/6
f 108/2/6 103/2/6 109/2/6
f 105/2/6 106/2/6 110/2/6
f 109/1/6 104/1/6 110/1/6
f 104/2/6 105/2/6 110/2/6
f 110/2/6 106/2/6 111/2/6
f 111/2/6 106/2/6 112/2/6
f 108/2/6 109/2/6 113/2/6
f 110/2/6 111/2/6 113/2/6
f 109/2/6 110/2/6 113/2/6
f 113/2/6 111/2/6 114/2/6
f 114/2/6 111/2/6 115/2/6
f 115/2/6 111/2/6 116/2/6
f 112/2/6 106/2/6 117/2/6
f 117/2/6 106/2/6 118/2/6
f 114/2/6 115/2/6 119/2/6
f 119/2/6 115/2/6 120/2/6
