# MagicaVoxel @ Ephtracy

# group
o 

# material
mtllib PlayerShip-1.mtl
usemtl palette

# normals
vn -1 0 0
vn 1 0 0
vn 0 0 -1
vn 0 0 1
vn 0 -1 0
vn 0 1 0

# texcoords
vt 0.591797 0.5
vt 0.958984 0.5

# verts
v -1.9 0 -0.9
v -1.9 0 -0.8
v -1.9 0.1 -0.9
v -1.9 0.1 -0.8
v -1.8 0 -1
v -1.8 0 -0.9
v -1.8 0 -0.8
v -1.8 0 -0.7
v -1.8 0.1 -1
v -1.8 0.1 -0.9
v -1.8 0.1 -0.8
v -1.8 0.1 -0.7
v -1.7 0 -1.3
v -1.7 0 -1.2
v -1.7 0.1 -1.3
v -1.7 0.1 -1.2
v -1.5 0 -1.1
v -1.5 0 -1
v -1.5 0.1 -1.1
v -1.5 0.1 -1
v -1.4 0 -1.2
v -1.4 0 -1.1
v -1.4 0.1 -1.2
v -1.4 0.1 -1.1
v -1.2 0 -1.1
v -1.2 0 -1
v -1.2 0.1 -1.1
v -1.2 0.1 -1
v -1.1 0 -1.2
v -1.1 0 -1.1
v -1.1 0.1 -1.2
v -1.1 0.1 -1.1
v -1 0 -1
v -1 0 -0.9
v -1 0 -0.8
v -1 0 -0.7
v -1 0.1 -1
v -1 0.1 -0.9
v -1 0.1 -0.8
v -1 0.1 -0.7
v -0.8 0 -1.3
v -0.8 0 -1.2
v -0.8 0 -0.9
v -0.8 0 -0.8
v -0.8 0.1 -1.3
v -0.8 0.1 -1.2
v -0.8 0.1 -0.9
v -0.8 0.1 -0.8
v -1.7 0 -1.3
v -1.7 0.1 -1.3
v -0.8 0 -1.3
v -0.8 0.1 -1.3
v -1.5 0 -1.1
v -1.5 0.1 -1.1
v -1.4 0 -1.1
v -1.4 0.1 -1.1
v -1.8 0 -1
v -1.8 0.1 -1
v -1.5 0 -1
v -1.5 0.1 -1
v -1.2 0 -1
v -1.2 0.1 -1
v -1 0 -1
v -1 0.1 -1
v -1.9 0 -0.9
v -1.9 0.1 -0.9
v -1.8 0 -0.9
v -1.8 0.1 -0.9
v -1 0 -0.9
v -1 0.1 -0.9
v -0.8 0 -0.9
v -0.8 0.1 -0.9
v -1.7 0 -1.2
v -1.7 0.1 -1.2
v -1.4 0 -1.2
v -1.4 0.1 -1.2
v -1.1 0 -1.2
v -1.1 0.1 -1.2
v -0.8 0 -1.2
v -0.8 0.1 -1.2
v -1.2 0 -1.1
v -1.2 0.1 -1.1
v -1.1 0 -1.1
v -1.1 0.1 -1.1
v -1.9 0 -0.8
v -1.9 0.1 -0.8
v -1.8 0 -0.8
v -1.8 0.1 -0.8
v -1 0 -0.8
v -1 0.1 -0.8
v -0.8 0 -0.8
v -0.8 0.1 -0.8
v -1.8 0 -0.7
v -1.8 0.1 -0.7
v -1 0 -0.7
v -1 0.1 -0.7
v -1.7 0 -1.3
v -0.8 0 -1.3
v -1.7 0 -1.2
v -1.4 0 -1.2
v -1.1 0 -1.2
v -0.8 0 -1.2
v -1.5 0 -1.1
v -1.4 0 -1.1
v -1.2 0 -1.1
v -1.1 0 -1.1
v -1.8 0 -1
v -1.5 0 -1
v -1.4 0 -1
v -1.3 0 -1
v -1.2 0 -1
v -1 0 -1
v -1.9 0 -0.9
v -1.8 0 -0.9
v -1.7 0 -0.9
v -1.4 0 -0.9
v -1.3 0 -0.9
v -1.1 0 -0.9
v -1 0 -0.9
v -0.8 0 -0.9
v -1.9 0 -0.8
v -1.8 0 -0.8
v -1.7 0 -0.8
v -1.1 0 -0.8
v -1 0 -0.8
v -0.8 0 -0.8
v -1.8 0 -0.7
v -1 0 -0.7
v -1.7 0.1 -1.3
v -0.8 0.1 -1.3
v -1.7 0.1 -1.2
v -1.4 0.1 -1.2
v -1.1 0.1 -1.2
v -0.8 0.1 -1.2
v -1.5 0.1 -1.1
v -1.4 0.1 -1.1
v -1.2 0.1 -1.1
v -1.1 0.1 -1.1
v -1.8 0.1 -1
v -1.5 0.1 -1
v -1.4 0.1 -1
v -1.3 0.1 -1
v -1.2 0.1 -1
v -1 0.1 -1
v -1.9 0.1 -0.9
v -1.8 0.1 -0.9
v -1.7 0.1 -0.9
v -1.4 0.1 -0.9
v -1.3 0.1 -0.9
v -1.1 0.1 -0.9
v -1 0.1 -0.9
v -0.8 0.1 -0.9
v -1.9 0.1 -0.8
v -1.8 0.1 -0.8
v -1.7 0.1 -0.8
v -1.1 0.1 -0.8
v -1 0.1 -0.8
v -0.8 0.1 -0.8
v -1.8 0.1 -0.7
v -1 0.1 -0.7

# faces
f 1/2/1 2/2/1 3/2/1
f 3/2/1 2/2/1 4/2/1
f 5/2/1 6/2/1 9/2/1
f 9/2/1 6/2/1 10/2/1
f 7/2/1 8/2/1 11/2/1
f 11/2/1 8/2/1 12/2/1
f 13/1/1 14/1/1 15/1/1
f 15/1/1 14/1/1 16/1/1
f 17/1/1 18/1/1 19/1/1
f 19/1/1 18/1/1 20/1/1
f 21/1/1 22/1/1 23/1/1
f 23/1/1 22/1/1 24/1/1
f 27/1/2 26/1/2 25/1/2
f 28/1/2 26/1/2 27/1/2
f 31/1/2 30/1/2 29/1/2
f 32/1/2 30/1/2 31/1/2
f 37/2/2 34/2/2 33/2/2
f 38/2/2 34/2/2 37/2/2
f 39/2/2 36/2/2 35/2/2
f 40/2/2 36/2/2 39/2/2
f 45/1/2 42/1/2 41/1/2
f 46/1/2 42/1/2 45/1/2
f 47/2/2 44/2/2 43/2/2
f 48/2/2 44/2/2 47/2/2
f 49/1/3 50/1/3 51/1/3
f 51/1/3 50/1/3 52/1/3
f 53/1/3 54/1/3 55/1/3
f 55/1/3 54/1/3 56/1/3
f 57/2/3 58/2/3 59/2/3
f 59/2/3 58/2/3 60/2/3
f 61/2/3 62/2/3 63/2/3
f 63/2/3 62/2/3 64/2/3
f 65/2/3 66/2/3 67/2/3
f 67/2/3 66/2/3 68/2/3
f 69/2/3 70/2/3 71/2/3
f 71/2/3 70/2/3 72/2/3
f 75/1/4 74/1/4 73/1/4
f 76/1/4 74/1/4 75/1/4
f 79/1/4 78/1/4 77/1/4
f 80/1/4 78/1/4 79/1/4
f 83/1/4 82/1/4 81/1/4
f 84/1/4 82/1/4 83/1/4
f 87/2/4 86/2/4 85/2/4
f 88/2/4 86/2/4 87/2/4
f 91/2/4 90/2/4 89/2/4
f 92/2/4 90/2/4 91/2/4
f 95/2/4 94/2/4 93/2/4
f 96/2/4 94/2/4 95/2/4
f 97/1/5 98/1/5 99/1/5
f 99/1/5 98/1/5 100/1/5
f 100/1/5 98/1/5 101/1/5
f 101/1/5 98/1/5 102/1/5
f 100/1/5 101/1/5 104/1/5
f 104/1/5 101/1/5 105/1/5
f 105/1/5 101/1/5 106/1/5
f 103/1/5 104/1/5 108/1/5
f 104/1/5 105/1/5 108/1/5
f 108/1/5 105/1/5 109/1/5
f 109/1/5 105/1/5 110/1/5
f 110/1/5 105/1/5 111/1/5
f 107/2/5 108/2/5 114/2/5
f 108/2/5 109/2/5 114/2/5
f 114/2/5 109/2/5 115/2/5
f 109/1/5 110/1/5 116/1/5
f 115/2/5 109/2/5 116/2/5
f 110/2/5 111/2/5 117/2/5
f 116/1/5 110/1/5 117/1/5
f 111/2/5 112/2/5 117/2/5
f 117/2/5 112/2/5 118/2/5
f 118/2/5 112/2/5 119/2/5
f 113/2/5 114/2/5 121/2/5
f 114/2/5 115/2/5 121/2/5
f 121/2/5 115/2/5 122/2/5
f 115/1/5 116/1/5 123/1/5
f 122/2/5 115/2/5 123/2/5
f 116/1/5 117/1/5 123/1/5
f 117/1/5 118/1/5 123/1/5
f 119/2/5 120/2/5 124/2/5
f 123/1/5 118/1/5 124/1/5
f 118/2/5 119/2/5 124/2/5
f 124/2/5 120/2/5 125/2/5
f 125/2/5 120/2/5 126/2/5
f 122/2/5 123/2/5 127/2/5
f 124/2/5 125/2/5 127/2/5
f 123/2/5 124/2/5 127/2/5
f 127/2/5 125/2/5 128/2/5
f 131/1/6 130/1/6 129/1/6
f 132/1/6 130/1/6 131/1/6
f 133/1/6 130/1/6 132/1/6
f 134/1/6 130/1/6 133/1/6
f 136/1/6 133/1/6 132/1/6
f 137/1/6 133/1/6 136/1/6
f 138/1/6 133/1/6 137/1/6
f 140/1/6 136/1/6 135/1/6
f 140/1/6 137/1/6 136/1/6
f 141/1/6 137/1/6 140/1/6
f 142/1/6 137/1/6 141/1/6
f 143/1/6 137/1/6 142/1/6
f 146/2/6 140/2/6 139/2/6
f 146/2/6 141/2/6 140/2/6
f 147/2/6 141/2/6 146/2/6
f 148/1/6 142/1/6 141/1/6
f 148/2/6 141/2/6 147/2/6
f 149/2/6 143/2/6 142/2/6
f 149/1/6 142/1/6 148/1/6
f 149/2/6 144/2/6 143/2/6
f 150/2/6 144/2/6 149/2/6
f 151/2/6 144/2/6 150/2/6
f 153/2/6 146/2/6 145/2/6
f 153/2/6 147/2/6 146/2/6
f 154/2/6 147/2/6 153/2/6
f 155/1/6 148/1/6 147/1/6
f 155/2/6 147/2/6 154/2/6
f 155/1/6 149/1/6 148/1/6
f 155/1/6 150/1/6 149/1/6
f 156/2/6 152/2/6 151/2/6
f 156/1/6 150/1/6 155/1/6
f 156/2/6 151/2/6 150/2/6
f 157/2/6 152/2/6 156/2/6
f 158/2/6 152/2/6 157/2/6
f 159/2/6 155/2/6 154/2/6
f 159/2/6 157/2/6 156/2/6
f 159/2/6 156/2/6 155/2/6
f 160/2/6 157/2/6 159/2/6
