# MagicaVoxel @ Ephtracy

# group
o 

# material
mtllib PlayerShip-0.mtl
usemtl palette

# normals
vn -1 0 0
vn 1 0 0
vn 0 0 -1
vn 0 0 1
vn 0 -1 0
vn 0 1 0

# texcoords
vt 0.841797 0.5

# verts
v -0.8 0 -1.1
v -0.8 0 -1
v -0.8 0.1 -1.1
v -0.8 0.1 -1
v -0.7 0 -1.3
v -0.7 0 -1.1
v -0.7 0.1 -1.3
v -0.7 0.1 -1.1
v -0.5 0 -1.1
v -0.5 0 -1
v -0.5 0.1 -1.1
v -0.5 0.1 -1
v -0.4 0 -1.2
v -0.4 0 -1.1
v -0.4 0.1 -1.2
v -0.4 0.1 -1.1
v -0.3 0 -1.3
v -0.3 0 -1.2
v -0.3 0.1 -1.3
v -0.3 0.1 -1.2
v -0.7 0 -1.3
v -0.7 0.1 -1.3
v -0.3 0 -1.3
v -0.3 0.1 -1.3
v -0.8 0 -1.1
v -0.8 0.1 -1.1
v -0.7 0 -1.1
v -0.7 0.1 -1.1
v -0.4 0 -1.2
v -0.4 0.1 -1.2
v -0.3 0 -1.2
v -0.3 0.1 -1.2
v -0.5 0 -1.1
v -0.5 0.1 -1.1
v -0.4 0 -1.1
v -0.4 0.1 -1.1
v -0.8 0 -1
v -0.8 0.1 -1
v -0.5 0 -1
v -0.5 0.1 -1
v -0.7 0 -1.3
v -0.3 0 -1.3
v -0.4 0 -1.2
v -0.3 0 -1.2
v -0.8 0 -1.1
v -0.7 0 -1.1
v -0.5 0 -1.1
v -0.4 0 -1.1
v -0.8 0 -1
v -0.5 0 -1
v -0.7 0.1 -1.3
v -0.3 0.1 -1.3
v -0.4 0.1 -1.2
v -0.3 0.1 -1.2
v -0.8 0.1 -1.1
v -0.7 0.1 -1.1
v -0.5 0.1 -1.1
v -0.4 0.1 -1.1
v -0.8 0.1 -1
v -0.5 0.1 -1

# faces
f 1/1/1 2/1/1 3/1/1
f 3/1/1 2/1/1 4/1/1
f 5/1/1 6/1/1 7/1/1
f 7/1/1 6/1/1 8/1/1
f 11/1/2 10/1/2 9/1/2
f 12/1/2 10/1/2 11/1/2
f 15/1/2 14/1/2 13/1/2
f 16/1/2 14/1/2 15/1/2
f 19/1/2 18/1/2 17/1/2
f 20/1/2 18/1/2 19/1/2
f 21/1/3 22/1/3 23/1/3
f 23/1/3 22/1/3 24/1/3
f 25/1/3 26/1/3 27/1/3
f 27/1/3 26/1/3 28/1/3
f 31/1/4 30/1/4 29/1/4
f 32/1/4 30/1/4 31/1/4
f 35/1/4 34/1/4 33/1/4
f 36/1/4 34/1/4 35/1/4
f 39/1/4 38/1/4 37/1/4
f 40/1/4 38/1/4 39/1/4
f 41/1/5 42/1/5 43/1/5
f 43/1/5 42/1/5 44/1/5
f 41/1/5 43/1/5 46/1/5
f 46/1/5 43/1/5 47/1/5
f 47/1/5 43/1/5 48/1/5
f 45/1/5 46/1/5 49/1/5
f 46/1/5 47/1/5 49/1/5
f 49/1/5 47/1/5 50/1/5
f 53/1/6 52/1/6 51/1/6
f 54/1/6 52/1/6 53/1/6
f 56/1/6 53/1/6 51/1/6
f 57/1/6 53/1/6 56/1/6
f 58/1/6 53/1/6 57/1/6
f 59/1/6 56/1/6 55/1/6
f 59/1/6 57/1/6 56/1/6
f 60/1/6 57/1/6 59/1/6
