# MagicaVoxel @ Ephtracy

# group
o 

# material
mtllib PlayerShip-2.mtl
usemtl palette

# normals
vn -1 0 0
vn 1 0 0
vn 0 0 1
vn 0 0 -1
vn 0 -1 0
vn 0 1 0

# texcoords
vt 0.0214844 0.5
vt 0.591797 0.5
vt 0.841797 0.5
vt 0.958984 0.5

# verts
v -1.9 0 -1.8
v -1.9 0 -1.9
v -1.9 0.1 -1.8
v -1.9 0.1 -1.9
v -1.8 0 -1.7
v -1.8 0 -1.8
v -1.8 0 -1.9
v -1.8 0 -2
v -1.8 0.1 -1.7
v -1.8 0.1 -1.8
v -1.8 0.1 -1.9
v -1.8 0.1 -2
v -1.7 0 -1.4
v -1.7 0 -1.5
v -1.7 0.1 -1.4
v -1.7 0.1 -1.5
v -1.5 0 -1.3
v -1.5 0 -1.4
v -1.5 0 -1.6
v -1.5 0 -1.7
v -1.5 0.1 -1.3
v -1.5 0.1 -1.4
v -1.5 0.1 -1.6
v -1.5 0.1 -1.7
v -1.4 0 -1.5
v -1.4 0 -1.6
v -1.4 0.1 -1.5
v -1.4 0.1 -1.6
v -0.8 0 -1.6
v -0.8 0 -1.7
v -0.8 0.1 -1.6
v -0.8 0.1 -1.7
v -0.7 0 -1.4
v -0.7 0 -1.6
v -0.7 0.1 -1.4
v -0.7 0.1 -1.6
v -1.2 0 -1.6
v -1.2 0 -1.7
v -1.2 0.1 -1.6
v -1.2 0.1 -1.7
v -1.1 0 -1.5
v -1.1 0 -1.6
v -1.1 0.1 -1.5
v -1.1 0.1 -1.6
v -1 0 -1.7
v -1 0 -1.8
v -1 0 -1.9
v -1 0 -2
v -1 0.1 -1.7
v -1 0.1 -1.8
v -1 0.1 -1.9
v -1 0.1 -2
v -0.8 0 -1.4
v -0.8 0 -1.5
v -0.8 0 -1.8
v -0.8 0 -1.9
v -0.8 0.1 -1.4
v -0.8 0.1 -1.5
v -0.8 0.1 -1.8
v -0.8 0.1 -1.9
v -0.5 0 -1.6
v -0.5 0 -1.7
v -0.5 0.1 -1.6
v -0.5 0.1 -1.7
v -0.4 0 -1.5
v -0.4 0 -1.6
v -0.4 0.1 -1.5
v -0.4 0.1 -1.6
v -0.3 0 -1.4
v -0.3 0 -1.5
v -0.3 0.1 -1.4
v -0.3 0.1 -1.5
v 0.1 0 -1.3
v 0.1 0 -1.4
v 0.1 0.1 -1.3
v 0.1 0.1 -1.4
v -1.5 0 -1.3
v -1.5 0.1 -1.3
v -0.3 0 -1.3
v -0.3 0.1 -1.3
v 0.1 0 -1.3
v 0.1 0.1 -1.3
v -1.7 0 -1.4
v -1.7 0.1 -1.4
v -1.5 0 -1.4
v -1.5 0.1 -1.4
v -1.5 0 -1.6
v -1.5 0.1 -1.6
v -1.4 0 -1.6
v -1.4 0.1 -1.6
v -0.8 0 -1.6
v -0.8 0.1 -1.6
v -0.7 0 -1.6
v -0.7 0.1 -1.6
v -1.8 0 -1.7
v -1.8 0.1 -1.7
v -1.5 0 -1.7
v -1.5 0.1 -1.7
v -1.2 0 -1.7
v -1.2 0.1 -1.7
v -1 0 -1.7
v -1 0.1 -1.7
v -1.9 0 -1.8
v -1.9 0.1 -1.8
v -1.8 0 -1.8
v -1.8 0.1 -1.8
v -1 0 -1.8
v -1 0.1 -1.8
v -0.8 0 -1.8
v -0.8 0.1 -1.8
v -0.8 0 -1.4
v -0.8 0.1 -1.4
v -0.7 0 -1.4
v -0.7 0.1 -1.4
v -0.3 0 -1.4
v -0.3 0.1 -1.4
v 0.1 0 -1.4
v 0.1 0.1 -1.4
v -1.7 0 -1.5
v -1.7 0.1 -1.5
v -1.4 0 -1.5
v -1.4 0.1 -1.5
v -1.1 0 -1.5
v -1.1 0.1 -1.5
v -0.8 0 -1.5
v -0.8 0.1 -1.5
v -0.4 0 -1.5
v -0.4 0.1 -1.5
v -0.3 0 -1.5
v -0.3 0.1 -1.5
v -1.2 0 -1.6
v -1.2 0.1 -1.6
v -1.1 0 -1.6
v -1.1 0.1 -1.6
v -0.5 0 -1.6
v -0.5 0.1 -1.6
v -0.4 0 -1.6
v -0.4 0.1 -1.6
v -0.8 0 -1.7
v -0.8 0.1 -1.7
v -0.5 0 -1.7
v -0.5 0.1 -1.7
v -1.9 0 -1.9
v -1.9 0.1 -1.9
v -1.8 0 -1.9
v -1.8 0.1 -1.9
v -1 0 -1.9
v -1 0.1 -1.9
v -0.8 0 -1.9
v -0.8 0.1 -1.9
v -1.8 0 -2
v -1.8 0.1 -2
v -1 0 -2
v -1 0.1 -2
v -1.5 0 -1.3
v -0.3 0 -1.3
v 0.1 0 -1.3
v -1.7 0 -1.4
v -1.5 0 -1.4
v -0.8 0 -1.4
v -0.7 0 -1.4
v -0.3 0 -1.4
v 0.1 0 -1.4
v -1.7 0 -1.5
v -1.4 0 -1.5
v -1.1 0 -1.5
v -0.8 0 -1.5
v -0.4 0 -1.5
v -0.3 0 -1.5
v -1.5 0 -1.6
v -1.4 0 -1.6
v -1.2 0 -1.6
v -1.1 0 -1.6
v -0.8 0 -1.6
v -0.7 0 -1.6
v -0.5 0 -1.6
v -0.4 0 -1.6
v -1.8 0 -1.7
v -1.5 0 -1.7
v -1.4 0 -1.7
v -1.3 0 -1.7
v -1.2 0 -1.7
v -1 0 -1.7
v -0.8 0 -1.7
v -0.5 0 -1.7
v -1.9 0 -1.8
v -1.8 0 -1.8
v -1.7 0 -1.8
v -1.4 0 -1.8
v -1.3 0 -1.8
v -1.1 0 -1.8
v -1 0 -1.8
v -0.8 0 -1.8
v -1.9 0 -1.9
v -1.8 0 -1.9
v -1.7 0 -1.9
v -1.1 0 -1.9
v -1 0 -1.9
v -0.8 0 -1.9
v -1.8 0 -2
v -1 0 -2
v -1.5 0.1 -1.3
v -0.3 0.1 -1.3
v 0.1 0.1 -1.3
v -1.7 0.1 -1.4
v -1.5 0.1 -1.4
v -0.8 0.1 -1.4
v -0.7 0.1 -1.4
v -0.3 0.1 -1.4
v 0.1 0.1 -1.4
v -1.7 0.1 -1.5
v -1.4 0.1 -1.5
v -1.1 0.1 -1.5
v -0.8 0.1 -1.5
v -0.4 0.1 -1.5
v -0.3 0.1 -1.5
v -1.5 0.1 -1.6
v -1.4 0.1 -1.6
v -1.2 0.1 -1.6
v -1.1 0.1 -1.6
v -0.8 0.1 -1.6
v -0.7 0.1 -1.6
v -0.5 0.1 -1.6
v -0.4 0.1 -1.6
v -1.8 0.1 -1.7
v -1.5 0.1 -1.7
v -1.4 0.1 -1.7
v -1.3 0.1 -1.7
v -1.2 0.1 -1.7
v -1 0.1 -1.7
v -0.8 0.1 -1.7
v -0.5 0.1 -1.7
v -1.9 0.1 -1.8
v -1.8 0.1 -1.8
v -1.7 0.1 -1.8
v -1.4 0.1 -1.8
v -1.3 0.1 -1.8
v -1.1 0.1 -1.8
v -1 0.1 -1.8
v -0.8 0.1 -1.8
v -1.9 0.1 -1.9
v -1.8 0.1 -1.9
v -1.7 0.1 -1.9
v -1.1 0.1 -1.9
v -1 0.1 -1.9
v -0.8 0.1 -1.9
v -1.8 0.1 -2
v -1 0.1 -2

# faces
f 3/4/1 2/4/1 1/4/1
f 4/4/1 2/4/1 3/4/1
f 9/4/1 6/4/1 5/4/1
f 10/4/1 6/4/1 9/4/1
f 11/4/1 8/4/1 7/4/1
f 12/4/1 8/4/1 11/4/1
f 15/2/1 14/2/1 13/2/1
f 16/2/1 14/2/1 15/2/1
f 21/3/1 18/3/1 17/3/1
f 22/3/1 18/3/1 21/3/1
f 23/2/1 20/2/1 19/2/1
f 24/2/1 20/2/1 23/2/1
f 27/2/1 26/2/1 25/2/1
f 28/2/1 26/2/1 27/2/1
f 31/3/1 30/3/1 29/3/1
f 32/3/1 30/3/1 31/3/1
f 35/3/1 34/3/1 33/3/1
f 36/3/1 34/3/1 35/3/1
f 37/2/2 38/2/2 39/2/2
f 39/2/2 38/2/2 40/2/2
f 41/2/2 42/2/2 43/2/2
f 43/2/2 42/2/2 44/2/2
f 45/4/2 46/4/2 49/4/2
f 49/4/2 46/4/2 50/4/2
f 47/4/2 48/4/2 51/4/2
f 51/4/2 48/4/2 52/4/2
f 53/2/2 54/2/2 57/2/2
f 57/2/2 54/2/2 58/2/2
f 55/4/2 56/4/2 59/4/2
f 59/4/2 56/4/2 60/4/2
f 61/3/2 62/3/2 63/3/2
f 63/3/2 62/3/2 64/3/2
f 65/3/2 66/3/2 67/3/2
f 67/3/2 66/3/2 68/3/2
f 69/3/2 70/3/2 71/3/2
f 71/3/2 70/3/2 72/3/2
f 73/1/2 74/1/2 75/1/2
f 75/1/2 74/1/2 76/1/2
f 79/3/3 78/3/3 77/3/3
f 80/3/3 78/3/3 79/3/3
f 81/1/3 80/1/3 79/1/3
f 82/1/3 80/1/3 81/1/3
f 85/2/3 84/2/3 83/2/3
f 86/2/3 84/2/3 85/2/3
f 89/2/3 88/2/3 87/2/3
f 90/2/3 88/2/3 89/2/3
f 93/3/3 92/3/3 91/3/3
f 94/3/3 92/3/3 93/3/3
f 97/4/3 96/4/3 95/4/3
f 98/4/3 96/4/3 97/4/3
f 101/4/3 100/4/3 99/4/3
f 102/4/3 100/4/3 101/4/3
f 105/4/3 104/4/3 103/4/3
f 106/4/3 104/4/3 105/4/3
f 109/4/3 108/4/3 107/4/3
f 110/4/3 108/4/3 109/4/3
f 111/3/4 112/3/4 113/3/4
f 113/3/4 112/3/4 114/3/4
f 115/1/4 116/1/4 117/1/4
f 117/1/4 116/1/4 118/1/4
f 119/2/4 120/2/4 121/2/4
f 121/2/4 120/2/4 122/2/4
f 123/2/4 124/2/4 125/2/4
f 125/2/4 124/2/4 126/2/4
f 127/3/4 128/3/4 129/3/4
f 129/3/4 128/3/4 130/3/4
f 131/2/4 132/2/4 133/2/4
f 133/2/4 132/2/4 134/2/4
f 135/3/4 136/3/4 137/3/4
f 137/3/4 136/3/4 138/3/4
f 139/3/4 140/3/4 141/3/4
f 141/3/4 140/3/4 142/3/4
f 143/4/4 144/4/4 145/4/4
f 145/4/4 144/4/4 146/4/4
f 147/4/4 148/4/4 149/4/4
f 149/4/4 148/4/4 150/4/4
f 151/4/4 152/4/4 153/4/4
f 153/4/4 152/4/4 154/4/4
f 159/3/5 156/3/5 155/3/5
f 160/3/5 156/3/5 159/3/5
f 161/3/5 156/3/5 160/3/5
f 162/1/5 157/1/5 156/1/5
f 162/3/5 156/3/5 161/3/5
f 163/1/5 157/1/5 162/1/5
f 164/2/5 159/2/5 158/2/5
f 164/2/5 160/2/5 159/2/5
f 165/2/5 160/2/5 164/2/5
f 166/2/5 160/2/5 165/2/5
f 167/2/5 160/2/5 166/2/5
f 168/3/5 162/3/5 161/3/5
f 169/3/5 162/3/5 168/3/5
f 171/2/5 166/2/5 165/2/5
f 172/2/5 166/2/5 171/2/5
f 173/2/5 166/2/5 172/2/5
f 175/3/5 168/3/5 161/3/5
f 176/3/5 168/3/5 175/3/5
f 177/3/5 168/3/5 176/3/5
f 179/2/5 171/2/5 170/2/5
f 179/2/5 172/2/5 171/2/5
f 180/2/5 172/2/5 179/2/5
f 181/2/5 172/2/5 180/2/5
f 182/2/5 172/2/5 181/2/5
f 184/3/5 176/3/5 175/3/5
f 184/3/5 175/3/5 174/3/5
f 185/3/5 176/3/5 184/3/5
f 187/4/5 179/4/5 178/4/5
f 187/4/5 180/4/5 179/4/5
f 188/4/5 180/4/5 187/4/5
f 189/2/5 181/2/5 180/2/5
f 189/4/5 180/4/5 188/4/5
f 190/4/5 183/4/5 182/4/5
f 190/2/5 181/2/5 189/2/5
f 190/4/5 182/4/5 181/4/5
f 191/4/5 183/4/5 190/4/5
f 192/4/5 183/4/5 191/4/5
f 194/4/5 187/4/5 186/4/5
f 194/4/5 188/4/5 187/4/5
f 195/4/5 188/4/5 194/4/5
f 196/2/5 189/2/5 188/2/5
f 196/4/5 188/4/5 195/4/5
f 196/2/5 190/2/5 189/2/5
f 196/2/5 191/2/5 190/2/5
f 197/4/5 193/4/5 192/4/5
f 197/2/5 191/2/5 196/2/5
f 197/4/5 192/4/5 191/4/5
f 198/4/5 193/4/5 197/4/5
f 199/4/5 193/4/5 198/4/5
f 200/4/5 196/4/5 195/4/5
f 200/4/5 198/4/5 197/4/5
f 200/4/5 197/4/5 196/4/5
f 201/4/5 198/4/5 200/4/5
f 202/3/6 203/3/6 206/3/6
f 206/3/6 203/3/6 207/3/6
f 207/3/6 203/3/6 208/3/6
f 203/1/6 204/1/6 209/1/6
f 208/3/6 203/3/6 209/3/6
f 209/1/6 204/1/6 210/1/6
f 205/2/6 206/2/6 211/2/6
f 206/2/6 207/2/6 211/2/6
f 211/2/6 207/2/6 212/2/6
f 212/2/6 207/2/6 213/2/6
f 213/2/6 207/2/6 214/2/6
f 208/3/6 209/3/6 215/3/6
f 215/3/6 209/3/6 216/3/6
f 212/2/6 213/2/6 218/2/6
f 218/2/6 213/2/6 219/2/6
f 219/2/6 213/2/6 220/2/6
f 208/3/6 215/3/6 222/3/6
f 222/3/6 215/3/6 223/3/6
f 223/3/6 215/3/6 224/3/6
f 217/2/6 218/2/6 226/2/6
f 218/2/6 219/2/6 226/2/6
f 226/2/6 219/2/6 227/2/6
f 227/2/6 219/2/6 228/2/6
f 228/2/6 219/2/6 229/2/6
f 222/3/6 223/3/6 231/3/6
f 221/3/6 222/3/6 231/3/6
f 231/3/6 223/3/6 232/3/6
f 225/4/6 226/4/6 234/4/6
f 226/4/6 227/4/6 234/4/6
f 234/4/6 227/4/6 235/4/6
f 227/2/6 228/2/6 236/2/6
f 235/4/6 227/4/6 236/4/6
f 229/4/6 230/4/6 237/4/6
f 236/2/6 228/2/6 237/2/6
f 228/4/6 229/4/6 237/4/6
f 237/4/6 230/4/6 238/4/6
f 238/4/6 230/4/6 239/4/6
f 233/4/6 234/4/6 241/4/6
f 234/4/6 235/4/6 241/4/6
f 241/4/6 235/4/6 242/4/6
f 235/2/6 236/2/6 243/2/6
f 242/4/6 235/4/6 243/4/6
f 236/2/6 237/2/6 243/2/6
f 237/2/6 238/2/6 243/2/6
f 239/4/6 240/4/6 244/4/6
f 243/2/6 238/2/6 244/2/6
f 238/4/6 239/4/6 244/4/6
f 244/4/6 240/4/6 245/4/6
f 245/4/6 240/4/6 246/4/6
f 242/4/6 243/4/6 247/4/6
f 244/4/6 245/4/6 247/4/6
f 243/4/6 244/4/6 247/4/6
f 247/4/6 245/4/6 248/4/6
